<svg width="225" height="225" viewBox="0 0 225 225" fill="none" xmlns="http://www.w3.org/2000/svg">
<path fill-rule="evenodd" clip-rule="evenodd" d="M97.2942 0.932369C81.9582 2.84837 64.1062 9.61437 49.7942 18.9364C41.4312 24.3834 24.3722 41.4424 18.9252 49.8054C-10.1688 94.4744 -5.33379 151.311 30.7812 189.184C50.4232 209.783 73.2432 221.02 101.444 223.982C133.674 227.366 165.341 216.483 189.205 193.818C234.581 150.724 236.622 80.4714 193.808 35.3944C168.463 8.70937 133.883 -3.63763 97.2942 0.932369ZM136.794 16.7444C171.765 25.8634 198.133 52.4784 208.011 88.6304C211.097 99.9204 211.104 122.836 208.026 135.079C203.504 153.066 194.554 168.976 181.76 181.771C166.996 196.534 142.051 209.531 138.028 204.555C137.467 203.86 136.829 195.086 136.593 184.805C136.153 165.689 136.122 165.527 131.012 155.555C130.8 155.142 131.695 154.805 133.001 154.805C134.306 154.805 138.056 154.109 141.334 153.258C164.074 147.355 174.734 133.005 174.779 108.237C174.797 98.5524 172.917 91.6774 168.469 85.1534C165.927 81.4264 165.328 79.7274 165.879 77.8054C167.012 73.8494 166.756 63.6824 165.413 59.3054L164.186 55.3054L159.24 55.4864C155.609 55.6194 151.902 56.8704 145.294 60.1924L136.294 64.7174L129.794 63.2624C121.489 61.4034 103.192 61.3904 94.7942 63.2374L88.2942 64.6674L79.2942 60.1694C72.7192 56.8834 68.9612 55.6214 65.3482 55.4884L60.4022 55.3054L59.1752 59.3054C57.8322 63.6824 57.5762 73.8494 58.7092 77.8054C59.2602 79.7274 58.6612 81.4264 56.1192 85.1534C51.6712 91.6774 49.7912 98.5524 49.8092 108.237C49.8542 133.005 60.5142 147.355 83.2542 153.258C86.5322 154.109 90.2452 154.805 91.5042 154.805C94.3302 154.805 94.3342 154.683 91.2942 160.401C89.9192 162.987 88.7942 165.881 88.7942 166.833C88.7942 171.177 74.0602 172.897 67.8612 169.276C65.9812 168.178 62.3502 164.586 59.7922 161.293C54.6262 154.643 48.9372 150.846 44.1032 150.821C39.3952 150.797 38.8982 152.752 42.8522 155.737C48.3512 159.888 50.8482 162.939 53.9282 169.269C59.6362 181.001 66.8172 185.243 79.9582 184.646L87.7942 184.29V193.848C87.7942 204.156 87.1072 205.813 82.8442 205.793C79.0792 205.775 66.0692 199.807 57.7752 194.293C9.04021 161.894 -0.516788 93.9714 37.2632 48.5124C51.0212 31.9584 71.5062 20.0544 94.4192 15.2984C104.626 13.1794 125.91 13.9064 136.794 16.7444Z" fill="black"/>
</svg>
