<svg width="253" height="543" viewBox="0 0 253 543" fill="none" xmlns="http://www.w3.org/2000/svg">
<path fill-rule="evenodd" clip-rule="evenodd" d="M150.291 1.02681C149.997 1.50281 151.976 4.65881 154.689 8.03981C157.402 11.4198 159.886 15.6428 160.208 17.4238C160.531 19.2038 160.663 29.2098 160.501 39.6578L160.208 58.6548L132.805 61.9758L105.401 65.2958L99.6789 62.7288C93.3479 59.8868 88.7079 59.3838 88.7079 61.5388C88.7079 62.2958 89.4589 63.5338 90.3769 64.2888C93.3839 66.7618 97.4589 77.4788 99.0739 87.1608C99.9459 92.3858 101.607 104.311 102.765 113.661C104.627 128.684 105.15 130.946 107.265 133.113C109.29 135.188 110.081 135.416 112.415 134.595C114.149 133.985 115.535 132.519 116.15 130.643C116.688 129.003 117.233 127.499 117.361 127.301C117.988 126.336 153.945 120.247 159.431 120.177C160.377 120.165 160.718 131.75 160.931 171.126C161.186 218.112 161.345 222.227 162.958 223.84C164.553 225.435 164.848 225.45 166.288 224.009C169.241 221.056 170.538 204.747 171.267 161.39C171.653 138.439 172.124 119.485 172.313 119.27C172.503 119.054 181.139 118.656 191.505 118.384L210.353 117.89L211.638 120.992C214.244 127.284 217.537 127.377 220.663 121.249C221.692 119.233 225.917 109.14 230.052 98.8188C235.53 85.1478 238.54 78.9828 241.14 76.1048C243.102 73.9328 244.708 71.4588 244.708 70.6078C244.708 65.7728 235.266 56.0078 228.684 54.0358C225.816 53.1768 220.793 53.2918 207.078 54.5328C197.249 55.4228 185.516 56.4408 181.004 56.7948L172.801 57.4408L173.234 50.5508C173.472 46.7608 173.874 38.8588 174.127 32.9898C174.482 24.7588 175.069 21.3728 176.697 18.1828C179.453 12.7808 178.713 10.8488 172.247 6.55581C164.495 1.40881 152 -1.73819 150.291 1.02681ZM38.7079 6.32281C38.7079 6.96181 40.8329 11.1098 43.4299 15.5398C54.2849 34.0548 73.7319 48.5908 77.7079 41.1608C78.9749 38.7938 78.6169 37.9978 71.1259 26.5468C66.8439 20.0008 65.2249 18.3138 62.7469 17.8188C57.9649 16.8618 49.1589 12.3798 44.6309 8.59681C40.3239 4.99881 38.7079 4.37781 38.7079 6.32281ZM218.708 64.9128C220.954 66.0348 222.327 67.5028 222.541 69.0118C222.724 70.3048 220.924 79.2458 218.541 88.8808C214.998 103.206 213.843 106.536 212.208 107.147C211.108 107.558 203.008 108.202 194.208 108.578C185.408 108.954 176.762 109.511 174.995 109.816L171.783 110.37L172.38 88.5148C172.709 76.4948 173.174 66.4358 173.413 66.1608C174.163 65.2988 194.753 63.4478 205.208 63.3028C212.936 63.1958 216.003 63.5608 218.708 64.9128ZM18.7079 66.2748C18.7079 67.6868 30.8629 86.2878 35.4259 91.8598C41.1789 98.8848 51.7079 102.312 51.7079 97.1598C51.7079 96.1878 49.8929 91.7668 47.6749 87.3348C43.8799 79.7528 43.3169 79.1288 38.1409 76.7588C35.1159 75.3738 30.0399 72.1978 26.8619 69.7008C21.0959 65.1708 18.7079 64.1678 18.7079 66.2748ZM160.478 88.9018L160.208 110.643L154.708 111.419C151.683 111.846 141.873 113.365 132.909 114.795C123.944 116.225 116.451 117.23 116.258 117.028C115.693 116.437 110.371 74.1628 110.81 73.7448C111.407 73.1768 152.625 67.3958 156.978 67.2698L160.747 67.1608L160.478 88.9018ZM68.0759 119.318C66.9039 120.607 62.5819 127.061 58.4719 133.661C38.6449 165.498 30.2039 177.336 25.6509 179.69C22.7949 181.167 22.3489 181.161 19.8819 179.601C18.4109 178.672 16.4779 176.997 15.5859 175.88C14.6429 174.699 13.3199 174.096 12.4269 174.438C10.4509 175.197 11.6789 181.422 15.2339 188.661C18.2329 194.767 26.9849 204.376 28.8849 203.647C29.6349 203.359 31.6149 200.319 33.2839 196.892C34.9529 193.465 41.7829 180.311 48.4619 167.661C61.9679 142.081 71.0029 122.168 70.5229 119.036C70.2149 117.019 70.1629 117.025 68.0759 119.318ZM48.3919 320.81C48.0859 321.116 48.2569 322.475 48.7719 323.829C50.8669 329.34 49.8749 335.873 45.6759 344.225C38.3239 358.846 28.4559 374.507 24.0909 378.48C19.6529 382.519 17.1809 387.625 18.2799 390.487C18.6239 391.384 23.2679 394.428 28.5999 397.252C43.8359 405.32 43.3519 403.158 33.0859 417.279C27.9619 424.325 22.4109 430.77 19.9579 432.517C17.6199 434.183 15.7079 436.085 15.7079 436.744C15.7079 437.403 17.2129 440.129 19.0519 442.802C22.7709 448.205 26.7809 450.333 29.5109 448.353C30.4439 447.675 33.8919 445.789 37.1729 444.16L43.1369 441.198L46.0119 443.93C51.6919 449.327 51.8299 450.12 51.8379 477.48C51.8439 497.19 51.4819 504.399 50.1719 510.661C48.1139 520.502 48.6299 528.607 51.8269 536.647C55.7309 546.464 58.7789 544.639 60.7039 531.33C61.2339 527.662 61.6669 508.236 61.6659 488.161C61.6639 447.491 61.5259 446.551 54.7249 440.829C52.9269 439.316 51.6259 437.922 51.8319 437.731C52.4889 437.122 76.9499 427.161 77.7879 427.161C78.2289 427.161 80.0089 429.822 81.7419 433.074C83.4759 436.326 86.0149 440.039 87.3849 441.324L89.8759 443.661L92.3969 440.733C94.6319 438.137 94.8439 437.229 94.2599 432.733C93.3789 425.941 90.6519 422.096 79.2629 411.582C64.1329 397.614 62.9609 397.715 71.1319 412.286C75.1799 419.506 76.4889 422.678 75.6359 423.206C74.2199 424.08 29.8359 435.203 27.8589 435.178C26.3559 435.159 26.8639 434.555 60.7989 396.068C74.0899 380.994 86.4819 367.577 88.3359 366.251C92.1659 363.515 92.8669 359.261 90.1329 355.358C88.1629 352.545 76.9629 343.161 75.5759 343.161C74.9199 343.161 74.7589 345.421 75.1309 349.411C75.5109 353.493 75.2789 356.574 74.4609 358.292C72.5089 362.39 47.3219 397.102 46.2769 397.133C45.7649 397.148 41.9859 394.574 37.8789 391.411C33.7709 388.248 29.9899 385.386 29.4739 385.049C28.4579 384.385 53.5519 353.121 62.3169 344.132C65.2819 341.091 67.7079 337.695 67.7079 336.585C67.7079 335.475 66.0209 332.947 63.9579 330.967C59.5929 326.776 49.2039 319.998 48.3919 320.81ZM198.708 329.315C193.637 330.51 167.898 334.572 139.75 338.621L115.292 342.138L111.226 340.17C105.441 337.369 100.708 336.534 100.708 338.313C100.708 339.085 101.397 340.7 102.24 341.903C104.956 345.78 106.571 351.82 111.758 377.481C114.557 391.33 117.501 403.673 118.301 404.911C119.121 406.181 120.765 407.161 122.076 407.161C124.445 407.161 127.708 404.398 127.708 402.391C127.708 401.78 128.118 401.025 128.62 400.716C129.526 400.155 148.117 396.161 149.818 396.161C150.308 396.161 150.708 401.786 150.708 408.661C150.708 415.536 150.37 421.163 149.958 421.165C149.546 421.167 140.632 422.714 130.149 424.603C110.242 428.19 108.357 428.201 100.304 424.789C98.1579 423.879 96.1829 423.353 95.9159 423.62C95.6489 423.887 97.0609 427.206 99.0519 430.997C102.8 438.129 106.308 453.079 110.236 478.661C111.165 484.711 112.569 491.22 113.355 493.124C116.352 500.387 120.547 502.255 123.065 497.448C124.358 494.981 125.648 494.491 137.336 492.02C144.403 490.527 150.349 489.469 150.55 489.669C150.75 489.87 151.284 493.33 151.736 497.359C153.633 514.278 161.091 524.74 174.208 528.883C191.13 534.229 219.585 536.077 241.171 533.233C253.696 531.583 255.126 529.984 249.655 523.753C245.289 518.78 244.708 515.666 244.708 497.218C244.708 487.609 244.339 481.156 243.822 481.711C243.335 482.233 241.302 488.736 239.305 496.161C232.599 521.099 230.198 523.345 209.544 523.994C193.769 524.49 181.386 522.836 174.417 519.302C165.935 515 162.564 508.003 162.333 494.218L162.208 486.774L165.708 485.994C167.633 485.565 174.562 484.728 181.105 484.133L193.002 483.053L196.152 486.107C199.708 489.553 203.598 490.071 205.937 487.411C206.783 486.449 210.474 475.086 214.139 462.161C218.506 446.757 221.819 437.002 223.755 433.845C228.319 426.401 227.986 425.369 218.708 418.152C208.944 410.558 209.711 410.635 184.61 414.722C172.466 416.699 162.31 418.097 162.041 417.828C161.773 417.559 161.871 412.174 162.259 405.862L162.966 394.384L168.087 393.702C187.005 391.182 190.103 391.059 193.183 392.706C197.041 394.768 200.993 393.445 203.09 389.388C203.904 387.816 207.274 377.848 210.581 367.237C213.888 356.626 217.295 347.17 218.151 346.224C221.998 341.973 218.111 336.367 207.761 331.241C203.218 328.991 201.571 328.641 198.708 329.315ZM202.326 340.609C202.632 341.405 202.251 345.793 201.48 350.359C200.412 356.682 199.736 358.561 198.643 358.242C194.397 357.001 189.067 357.229 178.783 359.092C172.499 360.23 166.82 361.161 166.163 361.161C165.491 361.161 164.749 359.218 164.467 356.719C164.148 353.886 162.822 350.721 160.806 347.98C159.068 345.616 158.063 343.543 158.573 343.373C160.916 342.592 189.884 339.376 195.489 339.275C200.128 339.191 201.916 339.54 202.326 340.609ZM148.719 349.411C150.077 351.639 150.702 354.444 150.704 358.328L150.708 363.995L145.696 365.07C138.722 366.566 122.101 368.459 120.533 367.936C119.751 367.675 118.599 363.649 117.633 357.795L116.03 348.087L120.119 348.639C122.368 348.943 128.033 348.571 132.708 347.812C145.987 345.655 146.457 345.702 148.719 349.411ZM198.708 366.843C198.708 367.218 197.752 371.069 196.583 375.402C195.061 381.041 194.075 383.132 193.112 382.762C192.372 382.479 188.491 382.868 184.487 383.629C180.484 384.389 173.875 385.335 169.802 385.73L162.397 386.45L163.052 381.666C163.413 379.035 163.708 375.193 163.708 373.128V369.374L172.958 367.877C182.624 366.313 198.708 365.667 198.708 366.843ZM150.708 380.661C150.708 385.336 150.37 389.164 149.958 389.168C149.546 389.171 144.033 390.068 137.708 391.161C131.383 392.254 125.71 393.151 125.1 393.154C124.178 393.16 120.203 377.266 120.962 376.606C121.274 376.334 146.607 372.407 148.958 372.266C150.496 372.174 150.708 373.192 150.708 380.661ZM208.027 423.961C209.522 425.613 209.529 426.54 208.112 435.211C206.011 448.069 206.411 447.353 202.29 445.631C197.002 443.421 193.294 443.551 180.708 446.385C174.383 447.809 167.521 449.262 165.458 449.613L161.708 450.252V438.321V426.391L169.958 425.168C192.95 421.76 205.671 421.357 208.027 423.961ZM150.778 428.911C150.918 430.406 150.94 437.825 150.825 445.239L150.708 452.817L138.458 455.005C131.72 456.209 124.174 457.458 121.687 457.782L117.166 458.37L114.958 447.078C113.743 440.868 112.852 435.689 112.978 435.57C113.394 435.178 147.168 428.277 148.958 428.218C149.921 428.187 150.74 428.498 150.778 428.911ZM202.972 454.411C204.486 455.561 204.401 456.482 201.913 465.909L199.208 476.156L196.082 475.571C193.503 475.087 172.414 477.794 163.958 479.694C161.727 480.195 161.708 480.104 161.708 468.802V457.405L169.458 456.256C173.72 455.623 179.683 454.721 182.708 454.25C191.232 452.924 201.118 453.003 202.972 454.411ZM74.2649 457.911C76.2859 462.496 79.7479 478.201 80.8719 487.887C81.9029 496.763 82.5249 499.063 84.4029 500.943C86.5319 503.076 86.8699 503.128 89.5539 501.741C98.0169 497.364 95.3869 484.973 81.4089 463.365C78.7709 459.287 76.0419 456.161 75.1209 456.161C73.9439 456.161 73.7069 456.645 74.2649 457.911ZM150.796 461.911C151.107 468.041 150.519 481.736 149.923 482.259C149.53 482.604 144.258 483.869 138.208 485.07C132.158 486.271 126.26 487.45 125.102 487.69C123.146 488.096 122.872 487.373 121.262 477.567C120.309 471.758 119.728 466.808 119.97 466.566C120.598 465.937 145.758 460.361 148.458 460.252C149.938 460.192 150.738 460.76 150.796 461.911ZM20.8109 470.097C19.7799 470.735 19.8629 471.56 21.2249 474.194C24.7389 480.99 20.5629 494.065 9.14988 511.997C5.88188 517.132 2.36688 522.665 1.33788 524.294C0.309876 525.923 -0.245118 527.541 0.104882 527.891C2.11988 529.906 19.4539 510.763 30.4149 494.417C37.6189 483.675 37.9009 483.04 36.7259 480.205C34.6599 475.217 23.7439 468.284 20.8109 470.097Z" fill="black" fill-opacity="0.1"/>
</svg>
